<svg width="500" height="267" version="1.1" xmlns="http://www.w3.org/2000/svg">
 <g fill="#0066b3">
  <path d="m169.11 95.328h33.449v8.7574h-22.516v7.3494h20.576v8.4654h-20.576v7.9972h23.105v9.4035h-34.038zm-40.74 0h11.228l14.579 25.868h0.1157v-25.868h10.29v41.973h-11.228l-14.581-26.16h-0.11571v26.16h-10.288zm-4.2356 24.632c0 6.0761-1.4581 10.632-4.3795 13.669-2.9197 3.0337-7.5532 4.5523-13.902 4.5523-6.3473 0-10.984-1.5186-13.904-4.5523-2.9197-3.0372-4.3795-7.5929-4.3795-13.669v-24.633h10.934v25.28c0 2.702 0.54939 4.7424 1.6499 6.1141 1.0953 1.3717 2.9957 2.0559 5.6995 2.0559s4.6076-0.68414 5.7029-2.0559c1.097-1.3717 1.6447-3.4121 1.6447-6.1141v-25.28h10.934z"/>
  <path d="m133.22 0.27976c-73.575 0-133.22 59.648-133.22 133.22 0 73.578 59.643 133.22 133.22 133.22 73.573 0 133.22-59.643 133.22-133.22 0-73.571-59.643-133.22-133.22-133.22m83.89 140.49h-4.8114v26.464l-11.309 20.208-38.975 17.321v19.736l-23.821 23.577-6.4942-1.2076v-6.7343l-11.307-13.23 13.469-13.237v-6.7326l-4.7337-1.9315 1.8486-5.0499-7.4582-13.23-11.549-0.96402v-32.239l-11.549-0.96228-0.0431-7.1144-24.923-11.986-2.6018-11.268-11.466 4.9548-16.302 0.38871-0.15377-4.6819-3.6937 0.59257-13.716-2.8869-5.2935-13.712 10.345-14.44 14.192-1.4408 4.0928-17.568-4.0928-6.7378 2.4066-10.585 18.29 1.928 5.0499 4.091 7.218-2.8886-3.3689-5.0516 1.446-9.8665 12.506-0.7187 10.59-6.0173 6.0139 6.9762v13.476l3.3689 3.6073 6.736-1.928-1.4408-3.3672 19.004-0.48027 11.793-13.474 12.992 22.38 5.772 1.4408-1.2007 5.2935 20.93 7.7001 21.982 6.159 18.436 12.852h10.107v15.397z"/>
  <path d="m491.55 197.21c-3.6833 0-6.0882-0.92773-8.3876-3.2272l1.7898-1.7898c2.0265 2.03 3.9062 2.683 6.6617 2.683 3.5745 0 5.7737-1.6844 5.7737-4.5402 0-1.2715-0.38007-2.3686-1.1731-3.0596-0.78607-0.68241-1.4063-0.89146-3.1892-1.1662l-2.854-0.44745c-1.928-0.30925-3.438-0.9312-4.5074-1.8555-1.2301-1.1022-1.8503-2.6104-1.8503-4.5678 0-4.1653 2.9905-6.9123 7.8348-6.9123 3.1236 0 5.1864 0.79298 7.282 2.683l-1.681 1.681c-1.5134-1.3769-3.1322-2.0922-5.6995-2.0922-3.2756 0-5.157 1.8192-5.157 4.5316 0 1.2059 0.34035 2.1682 1.097 2.8195 0.75324 0.65477 2.023 1.1333 3.298 1.3389l2.6778 0.41463c2.3081 0.3438 3.4363 0.8189 4.4659 1.7207 1.3476 1.1368 2.0714 2.8195 2.0714 4.8426 0 4.3001-3.3741 6.9434-8.4533 6.9434m-26.905-0.20576v-24.472h15.193v2.341h-12.582v8.6243h10.729v2.3392h-10.729v8.8299h12.582v2.3375zm-11.636-22.132v22.133h-2.6174v-22.133h-7.0695v-2.3392h16.768v2.3392zm-16.726 22.132-12.994-19.616v19.616h-2.6053v-24.472h2.474l12.994 19.555v-19.555h2.6104v24.472zm-22.323 0-1.9609-5.5319h-10.685l-1.9591 5.5319h-2.7832l8.9975-24.472h2.201l8.9699 24.472zm-7.2491-20.721-4.6041 12.921h9.1409zm-15.213 18.452c-1.4788 1.4788-3.6418 2.2684-6.1832 2.2684h-8.3894v-24.472h8.3894c2.5414 0 4.7044 0.79299 6.1832 2.2736 2.5465 2.5431 2.4049 6.2868 2.4049 9.6868 0 3.4052 0.14166 7.7-2.4049 10.243m-1.8278-18.078c-1.2664-1.3096-2.9145-1.7846-4.808-1.7846h-5.328v19.795h5.328c1.8935 0 3.5416-0.47682 4.808-1.7864 1.6931-1.757 1.6188-5.3988 1.6188-8.3894s0.0742-6.0795-1.6188-7.8348m-28.024 20.553c-4.9445 0-8.5259-3.4034-8.5259-8.284v-16.394h2.6105v16.188c0 3.711 2.3409 6.1556 5.9154 6.1556 3.5762 0 5.9396-2.4446 5.9396-6.1556v-16.188h2.6139v16.394c0 4.8806-3.6107 8.284-8.5535 8.284m-19.821-22.338v22.133h-2.6122v-22.133h-7.0764v-2.3392h16.767v2.3392zm-21.087 22.338c-3.6798 0-6.083-0.92773-8.3859-3.2272l1.7864-1.7898c2.0282 2.03 3.9148 2.683 6.6704 2.683 3.5693 0 5.7737-1.6844 5.7737-4.5402 0-1.2715-0.38008-2.3686-1.1696-3.0596-0.79298-0.68241-1.4098-0.89146-3.1996-1.1662l-2.854-0.44745c-1.9194-0.30925-3.4345-0.9312-4.5005-1.8555-1.2335-1.1022-1.8538-2.6104-1.8538-4.5678 0-4.1653 2.994-6.9123 7.8348-6.9123 3.1235 0 5.1898 0.79298 7.2854 2.683l-1.6844 1.681c-1.51-1.3769-3.127-2.0922-5.7029-2.0922-3.2669 0-5.1501 1.8192-5.1501 4.5316 0 1.2059 0.33689 2.1682 1.0901 2.8195 0.76189 0.65477 2.03 1.1333 3.3032 1.3389l2.6813 0.41463c2.3029 0.3438 3.4363 0.8189 4.4608 1.7207 1.3458 1.1368 2.0697 2.8195 2.0697 4.8426 0 4.3001-3.3706 6.9434-8.455 6.9434m-26.896-0.20576v-24.472h15.184v2.341h-12.577v8.6243h10.727v2.3392h-10.727v8.8299h12.577v2.3375zm51.726-34.143c-3.6747 0-6.0813-0.92774-8.3807-3.2272l1.7864-1.7881c2.0248 2.0282 3.9165 2.6761 6.6617 2.6761 3.5727 0 5.7789-1.6775 5.7789-4.5316 0-1.2733-0.38007-2.3755-1.173-3.0596-0.79126-0.68586-1.4115-0.89491-3.1961-1.1713l-2.8471-0.44573c-1.9228-0.30751-3.4397-0.92601-4.5022-1.8538-1.2422-1.0988-1.8572-2.6156-1.8572-4.5696 0-4.1601 2.9871-6.9122 7.8365-6.9122 3.1236 0 5.1846 0.79298 7.2837 2.6813l-1.6793 1.6879c-1.5117-1.3769-3.1339-2.0991-5.7116-2.0991-3.2618 0-5.1483 1.8227-5.1483 4.5368 0 1.2007 0.33861 2.1613 1.0936 2.8178 0.76189 0.65304 2.0352 1.135 3.298 1.3406l2.683 0.41807c2.3047 0.33863 3.4363 0.81718 4.4642 1.7138 1.3458 1.1333 2.0662 2.8195 2.0662 4.8477 0 4.2966-3.3741 6.9382-8.4568 6.9382m-14.727-2.5441c-1.6482 1.6499-3.8215 2.5465-6.2575 2.5465-2.4377 0-4.6076-0.89664-6.254-2.5465-2.2995-2.2995-2.2995-4.7044-2.2995-9.8959 0-5.1881 0-7.5929 2.2995-9.8959 1.6464-1.6534 3.8163-2.5482 6.254-2.5482 2.436 0 4.6093 0.8949 6.2575 2.5482 2.2995 2.3029 2.2995 4.7078 2.2995 9.8959 0 5.1915 0 7.5964-2.2995 9.8959m-2.0282-18.247c-1.0694-1.0988-2.6156-1.7501-4.2292-1.7501-1.6171 0-3.1598 0.65131-4.2258 1.7501-1.5445 1.5825-1.7173 3.2324-1.7173 8.3514 0 5.1207 0.17275 6.7689 1.7173 8.3514 1.066 1.1005 2.6087 1.7501 4.2258 1.7501 1.6136 0 3.1598-0.6496 4.2292-1.7501 1.5428-1.5825 1.7121-3.2307 1.7121-8.3514 0-5.119-0.16931-6.7689-1.7121-8.3514m-20.399 18.315c-1.4771 1.4806-3.6436 2.2718-6.1867 2.2718h-8.3859v-24.474h8.3859c2.5431 0 4.7095 0.79298 6.1867 2.2753 2.5431 2.5414 2.4049 6.2851 2.4049 9.6868 0 3.4034 0.13821 7.7001-2.4049 10.24m-1.8244-18.074c-1.2681-1.3061-2.9232-1.7846-4.8132-1.7846h-5.3297v19.792h5.3297c1.89 0 3.5451-0.47511 4.8132-1.7829 1.6862-1.757 1.6188-5.3971 1.6188-8.3894 0-2.9888 0.0674-6.0813-1.6188-7.8348m133.05-14.001v-24.47h2.6139v22.133h12.508v2.3375zm-6.7232 0-1.9574-5.5336h-10.689l-1.9557 5.5336h-2.7832l9.001-24.47h2.1976l8.9699 24.47zm-7.244-20.723-4.6128 12.921h9.1392zm-16.553 20.723-12.995-19.622v19.622h-2.607v-24.47h2.4688l12.992 19.555v-19.555h2.607v24.47zm-24.048-2.3375c-1.6464 1.6499-3.8129 2.5431-6.2575 2.5431-2.4429 0-4.6059-0.89319-6.254-2.5431-2.3029-2.3012-2.3029-4.7078-2.3029-9.8959 0-5.1898 0-7.5964 2.3029-9.8976 1.6482-1.6516 3.8112-2.5448 6.254-2.5448 2.4446 0 4.611 0.89318 6.2575 2.5448 2.3012 2.3012 2.3012 4.7078 2.3012 9.8976 0 5.1881 0 7.5947-2.3012 9.8959m-2.03-18.247c-1.0659-1.1005-2.607-1.7536-4.2275-1.7536-1.6171 0-3.1564 0.65305-4.2275 1.7536-1.5428 1.579-1.7155 3.2289-1.7155 8.3514 0 5.1172 0.17276 6.7671 1.7155 8.3479 1.0711 1.1005 2.6104 1.7553 4.2275 1.7553 1.6205 0 3.1616-0.65477 4.2275-1.7553 1.5514-1.5808 1.7173-3.2307 1.7173-8.3479 0-5.1224-0.16585-6.7723-1.7173-8.3514m-21.542-3.8863h2.6104v24.47h-2.6104zm-14.248 24.676c-2.41 0-4.6076-0.89318-6.2523-2.5431-2.3081-2.3012-2.3081-4.7078-2.3081-9.8959 0-5.1898 0-7.5947 2.3081-9.8976 1.6447-1.6499 3.8422-2.5431 6.2523-2.5431 4.4003 0 7.6638 2.6796 8.4878 7.2837h-2.6813c-0.65304-2.9905-2.7469-4.9462-5.8066-4.9462-1.6188 0-3.1633 0.61676-4.2258 1.719-1.5549 1.5791-1.7242 3.2618-1.7242 8.3842 0 5.119 0.16931 6.8034 1.7242 8.3842 1.0625 1.0988 2.607 1.719 4.2258 1.719 3.0596 0 5.2209-1.9591 5.8774-4.9514h2.6104c-0.78953 4.6059-4.1239 7.2872-8.4878 7.2872m-14.012-0.20489-1.9505-5.5336h-10.694l-1.954 5.5336h-2.7832l8.9975-24.47h2.1976l8.9733 24.47zm-7.2509-20.723-4.6041 12.921h9.1409zm-16.546 20.723-12.995-19.622v19.622h-2.607v-24.47h2.4653l12.999 19.555v-19.555h2.607v24.47zm77.21-36.683c-1.6534 1.6464-3.8181 2.5413-6.2575 2.5413-2.4342 0-4.6059-0.8949-6.254-2.5413-2.3029-2.3029-2.3029-4.7095-2.3029-9.8976 0-5.1898 0-7.5947 2.3029-9.8976 1.6482-1.6516 3.8198-2.5448 6.254-2.5448 2.4394 0 4.6041 0.89318 6.2575 2.5448 2.296 2.3029 2.296 4.7078 2.296 9.8976 0 5.1881 0 7.5947-2.296 9.8976m-2.0282-18.251c-1.0642-1.0988-2.6156-1.7518-4.2292-1.7518-1.6171 0-3.1633 0.65304-4.2241 1.7518-1.5531 1.5808-1.7225 3.2307-1.7225 8.3531 0 5.119 0.16932 6.7671 1.7225 8.3496 1.0608 1.1005 2.607 1.7518 4.2241 1.7518 1.6136 0 3.165-0.65131 4.2292-1.7518 1.5462-1.5825 1.7121-3.2307 1.7121-8.3496 0-5.1224-0.16585-6.7723-1.7121-8.3531m-18.238 20.585-1.9609-5.5319h-10.687l-1.9557 5.5319h-2.7867l9.0044-24.467h2.201l8.9733 24.467zm-5.2935-27.286c-0.99857 0-1.6136-0.30923-2.4394-0.79124-0.65304-0.37663-1.2352-0.72043-1.9228-0.72043-0.58739 0-1.0348 0.10366-2.03 1.1005l-1.2664-1.237c1.541-1.548 2.436-1.7535 3.2652-1.7535 0.99166 0 1.5756 0.27469 2.436 0.82408 0.72215 0.44919 1.2404 0.68933 1.9229 0.68933 0.51829 0 0.99857-0.0709 2.0265-1.1022l1.2733 1.2733c-1.5773 1.5445-2.474 1.7173-3.2652 1.7173m-1.9574 6.565-4.6076 12.919h9.1444zm-16.699-3.7441h2.6174v24.467h-2.6174zm-9.5381 24.465-12.994-19.622v19.622h-2.6053v-24.467h2.4653l12.995 19.553v-19.553h2.6105v24.467zm-30.883 0.20748c-4.9445 0-8.5259-3.4034-8.5259-8.2823v-16.392h2.6156v16.184c0 3.711 2.3357 6.1521 5.9102 6.1521 3.5745 0 5.9448-2.4412 5.9448-6.1521v-16.184h2.6122v16.392c0 4.8788-3.6073 8.2823-8.557 8.2823"/>
 </g>
</svg>
